<?xml version="1.0" encoding="UTF-8"?>
<svg version="1.1" xmlns="http://www.w3.org/2000/svg" width="70" height="60">
<path d="M0 0 C12 1 12 1 17.6875 2.6875 C23.15124593 4.29770266 26.65118011 3.57318232 32 2 C33.89085855 1.60067183 35.78714126 1.22634838 37.6875 0.875 C38.55761719 0.70742188 39.42773438 0.53984375 40.32421875 0.3671875 C43 0 43 0 49 0 C49 14.85 49 29.7 49 45 C43.39 45.99 37.78 46.98 32 48 C30.02 48.66 28.04 49.32 26 50 C23.02734375 49.71875 23.02734375 49.71875 20 49 C18.94941406 48.7628125 17.89882813 48.525625 16.81640625 48.28125 C14.64959756 47.76100782 12.48293041 47.24017579 10.31640625 46.71875 C6.90930345 45.98034374 3.45116233 45.49302319 0 45 C0 30.15 0 15.3 0 0 Z M3 4 C3.33 16.54 3.66 29.08 4 42 C8.95 42.99 13.9 43.98 19 45 C20.32 45.33 21.64 45.66 23 46 C23 33.46 23 20.92 23 8 C13.10149598 5.17553741 13.10149598 5.17553741 3 4 Z M34.375 5.4375 C33.22773437 5.70433594 32.08046875 5.97117187 30.8984375 6.24609375 C28.08577388 6.87058954 28.08577388 6.87058954 26 8 C26 20.54 26 33.08 26 46 C29.63 45.01 33.26 44.02 37 43 C39.64 42.67 42.28 42.34 45 42 C45 29.46 45 16.92 45 4 C41.14190735 4 38.11299086 4.55573918 34.375 5.4375 Z " fill="indigo" transform="translate(9,2)"/>
<path d="M0 0 C1.32 0 2.64 0 4 0 C4 13.2 4 26.4 4 40 C7.3 40 10.6 40 14 40 C17.5390625 40.69140625 17.5390625 40.69140625 20.625 41.5625 C26.98560854 43.13963335 30.97719859 42.89395587 37.35546875 41.4765625 C38.18691406 41.29867187 39.01835938 41.12078125 39.875 40.9375 C40.61492188 40.76089844 41.35484375 40.58429687 42.1171875 40.40234375 C46.37230967 39.80847169 50.70363541 40 55 40 C55 26.8 55 13.6 55 0 C56.32 0 57.64 0 59 0 C59 14.19 59 28.38 59 43 C52.07 43.99 45.14 44.98 38 46 C35.69 46.66 33.38 47.32 31 48 C27.55859375 47.71875 27.55859375 47.71875 24 47 C22.71222656 46.7628125 21.42445312 46.525625 20.09765625 46.28125 C18.08061775 45.89313181 16.06454311 45.5004003 14.04882812 45.10546875 C13.05206055 44.91404297 13.05206055 44.91404297 12.03515625 44.71875 C11.4512915 44.60466797 10.86742676 44.49058594 10.26586914 44.37304688 C6.85930088 43.81219823 3.42576785 43.42822098 0 43 C0 28.81 0 14.62 0 0 Z " fill="indigo" transform="translate(4,9)"/>
<path d="M0 0 C0 1.98 0 3.96 0 6 C-0.33 4.68 -0.66 3.36 -1 2 C-1.928125 2.45375 -2.85625 2.9075 -3.8125 3.375 C-8.67639769 5.48669221 -13.78863491 6.19897643 -19 7 C-19 6.34 -19 5.68 -19 5 C-20.32 4.67 -21.64 4.34 -23 4 C-15.28722336 1.53253222 -8.16736866 -0.19920411 0 0 Z " fill="indigo" transform="translate(58,2)"/>
<path d="M0 0 C1.65 0 3.3 0 5 0 C4.67 13.2 4.34 26.4 4 40 C3.67 40 3.34 40 3 40 C3 27.46 3 14.92 3 2 C2.01 1.67 1.02 1.34 0 1 C0 0.67 0 0.34 0 0 Z " fill="indigo" transform="translate(52,4)"/>
<path d="M0 0 C5.4185766 -0.22577402 9.77487721 0.53329887 15 2 C13.4375 3.5625 13.4375 3.5625 11 5 C7.25 4.6875 7.25 4.6875 4 4 C4 3.34 4 2.68 4 2 C2.35 2 0.7 2 -1 2 C-0.67 1.34 -0.34 0.68 0 0 Z " fill="indigo" transform="translate(13,44)"/>
<path d="M0 0 C2.33094534 0.3496418 4.66404762 0.68554487 7 1 C7 1.33 7 1.66 7 2 C4.93827387 2.33808686 2.8755797 2.67027361 0.8125 3 C-0.91033203 3.2784375 -0.91033203 3.2784375 -2.66796875 3.5625 C-5.50415393 3.93489477 -8.14719564 4.08596021 -11 4 C-10.34 3.34 -9.68 2.68 -9 2 C-9.33 1.34 -9.66 0.68 -10 0 C-6.25059669 -0.7669234 -3.65083702 -1.10631425 0 0 Z " fill="indigo" transform="translate(53,50)"/>
</svg>
